<svg width="561" height="521" viewBox="0 0 561 521" fill="none" xmlns="http://www.w3.org/2000/svg">
<path d="M245.763 120.912H386.221C389.173 120.912 391.575 118.54 391.575 115.627V36.9653C391.575 34.0372 389.173 31.6802 386.221 31.6802H245.763C242.812 31.6802 240.409 34.0519 240.409 36.9653V115.627C240.409 118.54 242.812 120.912 245.763 120.912Z" fill="#4D93FF"/>
<path d="M240.409 63.9332H391.576V48.5317H240.409V63.9332Z" fill="#0046B3"/>
<path d="M356.943 103.798H379.176C380.585 103.798 381.727 104.926 381.727 106.316C381.727 107.707 380.585 108.835 379.176 108.835H356.943C355.534 108.835 354.377 107.707 354.377 106.316C354.377 104.926 355.52 103.798 356.943 103.798Z" fill="#D1F5FF"/>
<path d="M322.771 103.798H344.989C346.398 103.798 347.555 104.926 347.555 106.316C347.555 107.707 346.413 108.835 344.989 108.835H322.771C321.362 108.835 320.205 107.707 320.205 106.316C320.205 104.926 321.347 103.798 322.771 103.798Z" fill="#D1F5FF"/>
<path d="M380.2 36.2056C381.757 36.2056 383.033 37.45 383.033 38.9872V39.9681C383.033 41.5053 381.772 42.7497 380.2 42.7497C378.643 42.7497 377.382 41.5053 377.382 39.9681V38.9872C377.382 37.45 378.643 36.2056 380.2 36.2056Z" fill="#D1F5FF"/>
<path d="M374.119 39.485C374.119 41.3003 372.635 42.7643 370.796 42.7643H359.035C357.195 42.7643 355.712 41.3003 355.712 39.485C355.712 37.6696 357.195 36.2056 359.035 36.2056H370.796C372.635 36.2056 374.119 37.6696 374.119 39.485Z" fill="#D1F5FF"/>
<path d="M375.661 72.2202H360.459C358.026 72.2202 356.054 74.1673 356.054 76.5683V89.4956C356.054 91.8966 358.026 93.8437 360.459 93.8437H375.661C378.094 93.8437 380.066 91.8966 380.066 89.4956V76.5683C380.066 74.1673 378.094 72.2202 375.661 72.2202Z" fill="#CFE6F9"/>
<path d="M298.313 366.457C305.566 357.482 318.811 356.004 327.903 363.148C337.009 370.307 338.522 383.381 331.269 392.37C324.017 401.359 310.772 402.852 301.65 395.678C292.558 388.519 291.045 375.446 298.313 366.457ZM280.693 352.607C277.044 357.131 274.478 362.138 272.936 367.364L277.504 368.682C276.05 373.601 275.635 378.725 276.199 383.717L271.482 384.245C272.12 389.749 273.811 395.151 276.57 400.085L277.504 399.587L280.752 397.831C283.155 402.149 286.448 406.102 290.6 409.367L287.634 413.042C292.217 416.643 297.304 419.176 302.599 420.684L303.934 416.175C308.903 417.624 314.094 418.034 319.152 417.478L319.686 422.133C325.262 421.504 330.735 419.82 335.749 417.097L335.734 417.082L335.081 415.882L333.464 412.968C337.84 410.597 341.83 407.347 345.137 403.247L348.86 406.175C352.509 401.652 355.089 396.63 356.602 391.389L352.034 390.071C353.502 385.167 353.903 380.057 353.339 375.065L358.056 374.538C357.418 369.033 355.712 363.631 352.954 358.683L348.771 360.937C346.368 356.619 343.076 352.68 338.923 349.416L341.889 345.741C337.306 342.139 332.219 339.592 326.909 338.084L325.574 342.593C320.605 341.144 315.429 340.749 310.371 341.305L309.837 336.649C304.246 337.264 298.788 338.963 293.774 341.686L293.789 341.715L295.302 344.423L296.059 345.8C291.683 348.171 287.679 351.436 284.386 355.521L280.663 352.593L280.693 352.607Z" stroke="#00224D" stroke-width="1.42751" stroke-miterlimit="10"/>
<path d="M236.865 35.9264C236.865 32.0175 240.083 28.8406 244.043 28.8406H270.577C270.637 28.416 270.711 27.9915 270.711 27.5523C270.711 22.15 266.439 17.6994 261.055 17.3042C261.144 16.6307 261.219 15.9426 261.219 15.2399C261.219 6.82182 254.307 -0.000488281 245.779 -0.000488281C239.371 -0.000488281 233.883 3.83523 231.54 9.31064C229.642 7.64166 227.135 6.60221 224.376 6.60221C218.414 6.60221 213.579 11.3749 213.579 17.2456H211.562C205.836 17.2456 201.135 21.8719 201.135 27.5376C201.135 33.2033 205.822 37.8296 211.562 37.8296H236.865V35.9264Z" fill="#CCE0FF"/>
<path d="M339.649 520.764L185.042 520.061C166.443 519.973 151.448 505.026 151.522 486.682L153.154 104.091C153.228 85.7323 168.386 70.9018 186.985 70.9896L341.592 71.6924C360.192 71.7802 375.187 86.7278 375.112 105.072L373.481 487.677C373.407 506.036 358.249 520.867 339.649 520.779V520.764Z" fill="#303B3F"/>
<path d="M341.385 84.8832L311.41 84.7514C307.39 84.7368 304.112 88.0894 304.097 92.2325L304.068 97.6054C304.053 101.749 300.775 105.101 296.756 105.087L238.333 104.823C234.314 104.808 231.065 101.427 231.08 97.2834L231.095 91.9104C231.11 87.7673 227.862 84.3854 223.842 84.3708L213.297 84.3268L187.059 84.2097C174.022 84.1512 163.417 94.531 163.358 107.4L161.756 480.84C161.697 493.694 172.213 504.162 185.235 504.221L339.531 504.923C352.553 504.982 363.173 494.602 363.232 481.733L364.834 108.293C364.893 95.4387 354.377 84.971 341.355 84.9124L341.385 84.8832Z" fill="#FAFAFA"/>
<path d="M547.384 520.705C547.325 520.866 424.799 520.998 273.707 520.998C122.526 520.998 0 520.866 0 520.705C0 520.544 122.526 520.413 273.707 520.413C424.799 520.413 547.325 520.544 547.384 520.705Z" fill="#29383E"/>
<path d="M101.569 179.121C107.843 171.332 119.323 170.058 127.213 176.251C135.104 182.459 136.409 193.79 130.135 201.564C123.846 209.352 112.366 210.641 104.476 204.433C96.6002 198.241 95.295 186.909 101.584 179.106L101.569 179.121ZM86.3069 167.116C83.1477 171.025 80.9229 175.387 79.588 179.897L83.5481 181.038C82.2874 185.299 81.9315 189.735 82.4209 194.068L78.3273 194.522C78.8761 199.295 80.3445 203.965 82.7324 208.254L83.5333 207.83L86.3365 206.307C88.413 210.055 91.2755 213.466 94.8797 216.307L92.2989 219.498C96.259 222.616 100.679 224.812 105.262 226.115L106.419 222.207C110.735 223.466 115.229 223.817 119.604 223.334L120.064 227.375C124.899 226.833 129.646 225.369 133.991 223.012L133.976 222.997L133.413 221.958L132.004 219.44C135.801 217.39 139.257 214.579 142.119 211.021L145.352 213.569C148.512 209.66 150.751 205.297 152.071 200.759L148.111 199.617C149.387 195.357 149.728 190.935 149.253 186.602L153.347 186.148C152.798 181.375 151.315 176.69 148.927 172.401L145.308 174.348C143.232 170.6 140.384 167.189 136.78 164.363L139.36 161.172C135.4 158.053 130.98 155.843 126.383 154.54L125.226 158.449C120.924 157.19 116.43 156.853 112.04 157.321L111.58 153.281C106.73 153.808 101.999 155.286 97.6532 157.644L97.6681 157.673L98.9733 160.015L99.6407 161.201C95.8437 163.251 92.3879 166.076 89.5254 169.619L86.292 167.072L86.3069 167.116Z" stroke="#80B2FF" stroke-width="1.66543" stroke-miterlimit="10"/>
<path d="M136.542 261.81C115.08 284.502 80.8481 303.095 44.2135 311.016C44.1986 313.431 44.1393 326.812 43.8575 388.491C43.4867 470.769 122.807 510.971 135.133 517.149C147.072 511.732 227.402 471.574 227.773 389.296C228.054 327.617 228.114 314.236 228.128 311.821C191.568 303.578 157.796 284.678 136.557 261.81H136.542Z" fill="white"/>
<path d="M136.349 270.741C114.235 290.768 83.5772 306.507 49.894 315.086L49.5677 388.477C49.4194 422.061 62.9312 452.439 89.7324 478.777C107.353 496.082 125.863 506.813 135.266 511.644C135.667 511.439 136.112 511.22 136.557 510.985V270.916C136.497 270.858 136.423 270.799 136.364 270.741H136.349Z" fill="#80B2FF"/>
<path d="M136.542 270.916V510.985C146.316 505.963 164.07 495.598 181.082 479.186C208.121 453.083 221.914 422.836 222.063 389.252L222.389 315.861C188.869 307.003 158.449 291.06 136.527 270.916H136.542Z" fill="#4D93FF"/>
<path d="M204.057 344.467C178.398 348.376 143.469 371.464 121.428 399.236C118.343 386.148 104.461 374.187 97.1931 371.581L75.1975 393.409C88.9318 399.514 103.942 416.834 105.929 434.548L127.895 437.915C137.165 419.849 161.089 376.646 208.684 353.412C207.765 349.884 204.413 344.98 204.042 344.482L204.057 344.467Z" fill="#0046B3"/>
<path d="M441.322 203.776L503.541 203.366L557.055 202.824L557.277 210.832C538.678 217.918 524.083 220.07 505.558 221.432C486.796 227.581 461.953 231.651 442.731 232.983C425.837 233.773 424.428 204.566 441.322 203.776Z" fill="#F7A594"/>
<path d="M468.909 202.034C461.434 201.887 439.349 199.589 425.57 201.184C413.112 206.235 416.197 227.698 421.907 231.065C421.892 231.665 446.083 238.341 470.57 231.241C474.263 226.98 473.017 206.265 468.909 202.019V202.034Z" fill="#112E59"/>
<path d="M473.863 232.104C469.992 233.466 466.343 234.33 463.614 233.232C461.997 233.305 460.203 201.17 461.819 201.082L472.009 200.599C475.242 200.452 477.111 231.943 473.878 232.09L473.863 232.104Z" fill="#1D498C"/>
<path d="M550.87 202.97C552.68 194.698 555.572 182.927 559.087 182.766C559.843 182.737 559.947 183.22 559.918 185.416C558.167 200.115 562.187 204.112 560.259 208.269C558.123 212.296 552.235 212.222 552.235 212.222C548.942 210.758 548.675 205.312 550.885 202.984L550.87 202.97Z" fill="#F7A594"/>
<path d="M555.067 201.184L558.731 190.512C558.731 190.512 561.119 190.922 560.614 193.747C560.11 196.573 559.502 199.603 559.502 199.603C559.502 199.603 562.379 205.723 560.095 208.241C557.811 210.774 553.881 208.299 555.067 201.184Z" fill="#F7A594"/>
<path d="M560.599 207.803L560.318 207.715C561.563 203.865 559.398 199.722 559.383 199.678L559.354 199.634L559.368 199.59C559.368 199.561 559.976 196.516 560.481 193.734C560.674 192.621 560.436 191.757 559.769 191.187C559.413 190.879 559.012 190.747 558.82 190.689L555.201 201.244L554.919 201.156L558.627 190.352L558.745 190.367C558.775 190.367 559.398 190.484 559.947 190.952C560.466 191.391 561.015 192.241 560.748 193.763C560.288 196.355 559.724 199.18 559.635 199.575C559.873 200.044 561.786 204.041 560.57 207.788L560.599 207.803Z" fill="#D97B69"/>
<path d="M553.466 196.091L553.184 196.017C553.317 195.505 556.402 183.559 559.057 182.622L559.161 182.9C556.655 183.778 553.51 195.973 553.481 196.091H553.466Z" fill="#D97B69"/>
<path d="M363.84 520.354H392.466C393.044 520.018 393.459 519.652 393.697 519.227C394.157 498.218 395.788 488.087 395.788 488.087L375.81 487.282L372.057 502.918C365.59 507.427 358.1 517.09 363.84 520.354Z" fill="#231F20"/>
<path d="M394.661 520.734H360.725C359.865 520.734 359.924 516.078 360.785 516.078L394.527 516.268C395.417 516.268 395.551 520.748 394.661 520.748V520.734Z" fill="#231F20"/>
<path d="M391.146 299.859C389.114 315.421 380.452 353.837 381.386 396.103C372.013 449.964 370.974 461.823 369.832 495.041L398.443 496.095C403.026 472.905 412.429 436.29 416.686 400.568C425.926 372.415 431.993 332.301 434.974 300.444C437.97 272.994 398.665 261.897 391.146 299.859Z" fill="#112E59"/>
<path d="M383.819 496.344H383.24C383.3 492.509 394.928 363.002 406.734 310.488L407.312 310.62C395.506 363.09 383.893 492.523 383.833 496.344H383.819Z" fill="#231F20"/>
<path d="M419.89 301.761C423.924 355.344 435.804 400.845 435.804 400.845C433.476 437.402 440.046 472.509 444.718 496.519L471.935 496.285C473.507 472.772 470.14 345.535 463.11 302.376C459.758 264.224 415.04 262.174 419.89 301.761Z" fill="#112E59"/>
<path d="M449.865 496.504C448.649 505.156 447.804 511.92 448.871 519.752L493.382 520.601C493.382 520.601 497.579 516.37 491.735 510.017C485.892 503.663 475.569 507.337 468.227 496.255L449.88 496.504H449.865Z" fill="#231F20"/>
<path d="M495.413 520.734H448.159C447.299 520.734 447.299 516.078 448.159 516.078L495.221 516.268C496.111 516.268 496.303 520.748 495.413 520.748V520.734Z" fill="#231F20"/>
<path d="M465.319 495.992L455.99 310.97L456.583 310.94L465.898 495.962L465.319 495.992Z" fill="#231F20"/>
<path d="M463.006 295.671L392.258 301C392.896 257.27 372.902 227.082 377.055 215.809C382.78 200.335 424.473 200.232 440.358 206.264C446.661 208.665 456.925 222.514 458.126 239.936C458.467 248.047 458.541 253.61 457.741 260.096C456.94 266.581 462.991 295.671 462.991 295.671H463.006Z" fill="#112E59"/>
<path d="M420.72 214.962C417.428 212.385 404.301 208.403 400.816 205.577L401.602 183.09L414.506 181.846C418.243 182.153 421.981 183.032 425.199 184.291L428.107 199.092L428.744 202.298C430.213 205.46 427.306 209.267 420.705 214.932L420.72 214.962Z" fill="#F7A594"/>
<path d="M405.948 188.199C407.98 191.273 416.449 199.149 428.107 199.12L425.6 186.31L405.948 188.199Z" fill="#E6836F"/>
<path d="M434.499 158.58C435.508 163.016 437.599 172.737 437.258 177.217C436.739 184.04 430.287 191.594 424.666 192.589C418.155 193.248 409.374 191.33 404.598 187.29C401.958 184.215 396.812 176.939 394.453 170.571C389.529 157.277 399.036 145.624 411.11 142.93C423.183 140.236 431.355 144.789 434.499 158.595V158.58Z" fill="#F7A594"/>
<path d="M398.488 179.34C395.981 174.962 399.318 173.191 402.982 176.587C402.359 173.293 398.532 163.616 401.914 160.41C405.726 156.691 422.515 158.302 431.518 149.035C431.518 149.035 424.799 134.497 402.744 143.076C377.827 156.106 398.473 179.34 398.473 179.34H398.488Z" fill="#4D261C"/>
<path d="M401.617 175.183C403.53 177.467 403.604 180.512 401.795 181.961C399.985 183.425 396.974 182.737 395.076 180.453C393.163 178.169 393.088 175.124 394.898 173.675C396.707 172.211 399.718 172.899 401.617 175.183Z" fill="#F7A594"/>
<path d="M431.741 149.638C428.937 148.789 395.551 161.877 396.441 164.336C396.441 164.336 420.602 164.453 437.228 156.972C446.291 152.902 431.755 149.638 431.755 149.638H431.741Z" fill="#112E59"/>
<path d="M391.413 166.443L431.963 149.578L430.584 143.912L387.63 161.407C388.476 163.354 389.944 165.462 391.427 166.458L391.413 166.443Z" fill="#1D498C"/>
<path d="M386.444 162.653C382.009 164.322 379.636 161.643 384.115 156.562C391.027 148.715 395.743 128.644 406.007 124.998C413.082 122.495 418.421 130.664 427.81 135.744C432.067 138.043 434.454 140.458 432.853 143.284C428.003 146.871 391.071 160.911 386.429 162.653H386.444Z" fill="#112E59"/>
<path d="M414.595 132.567C414.55 132.435 414.52 132.376 414.506 132.347C413.497 132.494 412.474 132.479 411.509 132.347C410.545 132.215 409.641 131.952 408.884 131.571C408.884 131.571 408.884 131.571 408.869 131.586C408.721 131.967 408.499 132.362 408.261 132.742C407.935 133.255 407.535 133.753 407.09 134.221C406.867 134.455 406.63 134.69 406.378 134.909C406.007 135.231 405.606 135.539 405.176 135.817C405.206 135.89 405.325 136.183 405.695 137.149C405.77 137.34 405.859 137.559 405.948 137.808C405.992 137.94 406.037 138.072 406.096 138.203C406.259 138.628 406.452 139.126 406.674 139.711C406.971 140.487 407.386 141.146 407.861 141.688C408.009 141.863 408.187 142.039 408.35 142.2C408.869 142.683 409.433 143.049 409.997 143.357C410.56 143.649 411.124 143.869 411.643 144.03C412.34 144.25 412.948 144.352 413.349 144.411C413.541 144.44 413.705 144.455 413.794 144.455C413.942 144.279 414.372 143.825 414.847 143.152C415.025 142.873 415.232 142.581 415.41 142.244C415.499 142.068 415.588 141.893 415.677 141.717C416.36 140.253 416.79 138.335 415.989 136.256C415.099 133.914 414.743 132.962 414.595 132.567Z" fill="#007CDC"/>
<path d="M414.372 136.901C414.995 138.555 414.12 140.385 412.459 141C410.783 141.615 408.914 140.766 408.306 139.126C407.683 137.472 408.543 135.642 410.219 135.027C411.895 134.412 413.764 135.261 414.372 136.901Z" fill="white"/>
<path d="M420.424 208.753L422.56 213.159L422.886 208.475L425.763 216.014C425.052 214.77 422.619 213.672 422.619 213.672C422.619 213.672 419.964 214.872 418.674 217.742L420.424 208.767V208.753Z" fill="#231F20"/>
<path d="M400.979 200.174C404.168 204.23 414.521 207.011 420.424 208.739L418.674 217.713C411.584 215.342 402.403 212.662 398.295 204.288C397.36 202.004 398.473 200.745 400.979 200.174Z" fill="#1D498C"/>
<path d="M428.151 198.769C427.84 200.247 427.587 206.03 422.871 208.475L425.748 216.015C432.245 212.34 432.586 208.943 431.592 203.614C431.192 201.492 430.465 199.222 428.151 198.783V198.769Z" fill="#1D498C"/>
<path d="M433.787 299.67C433.639 299.67 433.52 299.567 433.505 299.406C432.778 292.745 432.185 284.795 431.562 276.377C429.856 253.451 427.943 227.464 422.352 213.747C422.292 213.6 422.366 213.424 422.515 213.366C422.663 213.307 422.841 213.381 422.9 213.527C428.522 227.333 430.465 253.363 432.155 276.319C432.778 284.737 433.372 292.672 434.098 299.333C434.113 299.494 433.995 299.626 433.831 299.655C433.817 299.655 433.817 299.655 433.802 299.655L433.787 299.67Z" fill="#231F20"/>
<path d="M392.273 293.827C406.111 297.487 460.336 296.082 462.487 294.457C465.78 293.725 466.536 305.437 464.623 308.248C461.701 312.566 392.036 311.878 389.826 308.775C387.616 305.671 388.357 292.788 392.273 293.827Z" fill="#231F20"/>
<path d="M445.846 230.493C445.831 230.361 445.831 230.288 445.831 230.259C444.837 230.156 443.873 229.922 442.998 229.571C442.123 229.219 441.337 228.765 440.699 228.238C440.699 228.238 440.699 228.238 440.699 228.253C440.447 228.575 440.165 228.897 439.854 229.205C439.423 229.614 438.934 229.98 438.4 230.332C438.133 230.508 437.851 230.669 437.569 230.815C437.139 231.035 436.68 231.225 436.22 231.386C436.235 231.459 436.264 231.767 436.383 232.762C436.413 232.967 436.442 233.187 436.472 233.45C436.487 233.582 436.502 233.714 436.516 233.86C436.561 234.299 436.62 234.812 436.694 235.412C436.783 236.217 437.021 236.92 437.332 237.549C437.451 237.754 437.555 237.959 437.688 238.15C438.059 238.721 438.504 239.204 438.979 239.614C439.438 240.024 439.928 240.36 440.373 240.638C440.981 241.004 441.53 241.239 441.9 241.4C442.078 241.473 442.227 241.517 442.301 241.546C442.494 241.429 443.013 241.092 443.606 240.565C443.843 240.346 444.096 240.111 444.348 239.833C444.481 239.702 444.6 239.555 444.733 239.394C445.727 238.164 446.572 236.466 446.32 234.314C446.039 231.898 445.92 230.903 445.875 230.508L445.846 230.493Z" fill="#007CDC"/>
<path d="M449.998 250.741L437.51 251.942L437.302 249.687L449.776 248.487L449.998 250.741Z" fill="#1D498C"/>
<path d="M435.997 335.977H432.156L432.23 335.655C433.951 328.467 434.188 311.001 434.188 310.825H434.722C434.722 311.001 434.485 328.027 432.823 335.45H435.538C435.894 333.693 438.281 321.308 437.673 311.264L438.207 311.235C438.86 322.083 436.042 335.626 436.012 335.772L435.968 335.977H435.997Z" fill="#231F20"/>
<path d="M365.857 250.653C365.857 250.653 360.355 281.412 365.961 292.261C371.76 303.475 425.318 305.92 425.318 305.92L427.231 290.006L390.33 280.768L398.339 257.212L365.842 250.668L365.857 250.653Z" fill="#F7A594"/>
<path d="M379.74 211.081C379.74 211.081 364.181 229.821 363.558 256.656C383.833 271.252 397.197 260.741 397.197 260.741C397.197 260.741 407.475 233.905 405.206 220.861C402.937 207.802 384.353 206.338 379.755 211.081H379.74Z" fill="#112E59"/>
<path d="M364.241 248.618C366.985 251.912 398.502 258.354 399.155 254.738C400.03 258.193 399.852 261.575 397.019 264.722C396.218 269.759 362.046 264.459 362.846 259.423C360.859 256.304 361.319 252.703 364.241 248.618Z" fill="#1D498C"/>
<path d="M399.155 255.031C399.11 255.031 399.051 255.016 399.007 254.987C398.873 254.899 398.829 254.723 398.903 254.591C401.172 250.785 403.085 245.646 404.138 240.493C404.168 240.332 404.316 240.229 404.479 240.273C404.643 240.303 404.746 240.464 404.702 240.61C403.634 245.822 401.706 251.034 399.407 254.884C399.348 254.972 399.259 255.031 399.155 255.031Z" fill="#231F20"/>
<path d="M432.185 169.65C432.393 170.353 431.978 171.1 431.236 171.334C430.509 171.568 429.738 171.188 429.516 170.499C429.308 169.797 429.723 169.05 430.465 168.816C431.207 168.582 431.963 168.962 432.185 169.65Z" fill="#29383E"/>
<path d="M431.725 167.57C431.607 167.789 430.376 167.306 428.922 167.687C427.469 168.053 426.594 169.063 426.386 168.931C426.282 168.873 426.371 168.521 426.757 168.067C427.128 167.614 427.825 167.087 428.729 166.852C429.634 166.618 430.48 166.75 431.013 166.969C431.547 167.189 431.785 167.467 431.725 167.57Z" fill="#29383E"/>
<path d="M417.012 173.485C417.22 174.188 416.805 174.935 416.063 175.169C415.336 175.403 414.565 175.022 414.343 174.334C414.135 173.632 414.55 172.885 415.292 172.651C416.033 172.417 416.79 172.797 417.012 173.485Z" fill="#29383E"/>
<path d="M416.983 171.378C416.834 171.583 415.663 170.983 414.18 171.217C412.696 171.437 411.717 172.359 411.54 172.198C411.451 172.125 411.569 171.788 411.984 171.364C412.4 170.954 413.141 170.5 414.061 170.353C414.981 170.207 415.826 170.427 416.315 170.705C416.82 170.983 417.027 171.276 416.968 171.364L416.983 171.378Z" fill="#29383E"/>
<path d="M424.814 181.303C424.784 181.23 425.645 180.835 427.068 180.264C427.424 180.132 427.766 179.971 427.751 179.693C427.766 179.4 427.513 179.049 427.217 178.668C426.624 177.877 426.015 177.043 425.378 176.164C422.797 172.592 420.809 169.606 420.958 169.503C421.106 169.401 423.316 172.226 425.912 175.798C426.535 176.677 427.143 177.526 427.706 178.331C427.958 178.712 428.329 179.122 428.285 179.722C428.255 180.029 428.033 180.293 427.81 180.41C427.588 180.542 427.38 180.6 427.202 180.659C425.748 181.127 424.829 181.362 424.814 181.289V181.303Z" fill="#29383E"/>
<path d="M411.628 167.746C411.836 167.981 412.874 167.439 414.209 167.014C415.529 166.575 416.701 166.399 416.716 166.092C416.745 165.799 415.41 165.448 413.853 165.975C412.296 166.487 411.421 167.541 411.628 167.761V167.746Z" fill="#29383E"/>
<path d="M425.051 163.442C425.185 163.735 426.386 163.442 427.84 163.179C429.293 162.9 430.509 162.739 430.539 162.417C430.569 162.124 429.249 161.773 427.632 162.081C426.015 162.373 424.918 163.164 425.051 163.427V163.442Z" fill="#29383E"/>
<path d="M420.142 183.922C420.335 183.864 420.705 185.137 422.085 185.752C423.464 186.367 424.814 185.826 424.873 186.016C424.918 186.089 424.636 186.353 424.057 186.528C423.494 186.704 422.589 186.763 421.758 186.382C420.913 186.016 420.409 185.342 420.216 184.83C420.008 184.303 420.068 183.952 420.157 183.922H420.142Z" fill="#29383E"/>
<path fill-rule="evenodd" clip-rule="evenodd" d="M504.609 298.044C504.609 288.264 502.384 276.025 501.865 265.586C501.836 264.108 501.732 262.278 501.569 261.004C501.361 259.423 501.005 259.789 498.499 258.984L457.874 246.598C455.012 245.676 454.003 246.261 450.888 247.359L409.596 259.979C409.596 273.477 406.497 287.459 406.497 301.645C406.497 305.847 407.639 309.961 408.558 314.031C409.908 320.472 417.146 331.028 421.966 335.596C428.507 341.847 446.988 355.199 454.908 355.199C457.503 355.199 460.915 353.413 463.466 352.461C476.963 346.825 490.475 336.401 498.113 323.898C501.673 316.08 504.713 310.107 504.609 298.029V298.044Z" fill="#0066BA"/>
<mask id="mask0_2736_32979" style="mask-type:luminance" maskUnits="userSpaceOnUse" x="406" y="246" width="99" height="110">
<path d="M504.609 298.044C504.609 288.264 502.384 276.025 501.865 265.586C501.836 264.108 501.732 262.278 501.569 261.004C501.361 259.423 501.005 259.789 498.499 258.984L457.874 246.598C455.012 245.676 454.003 246.261 450.888 247.359L409.596 259.979C409.596 273.477 406.497 287.459 406.497 301.645C406.497 305.847 407.639 309.961 408.558 314.031C409.908 320.472 417.146 331.028 421.966 335.596C428.507 341.847 446.988 355.199 454.908 355.199C457.503 355.199 460.915 353.413 463.466 352.461C476.963 346.825 490.475 336.401 498.113 323.898C501.673 316.08 504.713 310.107 504.609 298.029V298.044Z" fill="white"/>
</mask>
<g mask="url(#mask0_2736_32979)">
<path d="M530.031 236.469H454.166V378.434H530.031V236.469Z" fill="#005DAA"/>
</g>
<path d="M502.488 298.043C502.488 292.612 501.791 286.39 501.079 280.153C500.53 275.249 499.967 270.344 499.744 265.689V265.645C499.73 264.927 499.685 264.064 499.626 263.17C499.581 262.438 499.522 261.765 499.463 261.282C499.433 261.092 499.463 261.472 499.374 261.443C498.988 261.34 498.499 261.209 497.831 261.004L457.207 248.618C455.338 248.018 454.478 248.325 452.52 249.028L451.585 249.365L411.703 261.56C411.599 267.811 410.887 274.151 410.175 280.563C409.404 287.532 408.603 294.574 408.603 301.674C408.603 304.997 409.389 308.379 410.175 311.703C410.264 312.112 410.368 312.522 410.605 313.606L410.62 313.635C411.198 316.358 412.993 320.004 415.203 323.576C417.813 327.763 420.958 331.774 423.42 334.117L423.435 334.131C427.113 337.66 434.707 343.486 441.974 347.82C447.106 350.88 451.971 353.134 454.893 353.134C456.421 353.134 458.601 352.226 460.559 351.407C461.3 351.099 461.997 350.806 462.68 350.557C469.428 347.732 476.177 343.677 482.169 338.728C487.76 334.117 492.655 328.758 496.229 322.946L496.689 321.921C499.922 314.879 502.562 309.082 502.473 298.073L502.459 298.058L502.488 298.043ZM505.321 279.699C506.033 286.082 506.76 292.451 506.76 298.043H506.745C506.834 309.99 504.016 316.139 500.59 323.634L500.011 324.908L499.952 325.01C496.125 331.276 490.89 337.015 484.927 341.934C478.609 347.132 471.46 351.421 464.311 354.422L464.222 354.452C463.614 354.671 462.932 354.964 462.235 355.257C459.891 356.238 457.281 357.336 454.923 357.336C451.14 357.336 445.519 354.818 439.809 351.421C432.289 346.941 424.384 340.851 420.513 337.147L420.498 337.132C417.798 334.57 414.387 330.237 411.614 325.772C409.166 321.848 407.179 317.734 406.497 314.484L406.066 312.64C405.236 309.053 404.376 305.437 404.376 301.674C404.376 294.413 405.177 287.21 405.977 280.095C406.734 273.301 407.49 266.596 407.49 260.008V258.471L450.206 245.412L451.096 245.09C454.003 244.05 455.293 243.582 458.542 244.636L499.166 257.022C499.685 257.183 500.13 257.3 500.486 257.402C502.874 258.032 503.349 258.164 503.69 260.77C503.779 261.443 503.838 262.19 503.883 262.922C503.927 263.727 503.971 264.649 503.986 265.513C504.209 269.964 504.758 274.853 505.306 279.729L505.321 279.699Z" fill="white"/>
<path fill-rule="evenodd" clip-rule="evenodd" d="M439.231 282.538C440.951 282.538 450.948 279.171 453.662 278.205C455.279 277.634 455.665 277.561 457.207 278.132L469.265 281.733C472.232 282.772 471.905 282.304 472.291 284.515L473.018 291.908C473.344 292.069 473.745 292.142 474.115 292.274C474.486 292.406 474.783 292.494 475.213 292.64L479.41 294.089C480.627 294.397 482.985 295.963 482.896 294.119L481.22 276.258C481.012 275.584 458.794 268.352 455.857 268.103C454.063 267.957 430.169 275.862 430.05 275.994C429.813 276.243 428.181 296.007 428.226 296.11C428.493 296.798 429.531 296.827 430.228 297.032L454.092 305.23C454.582 305.377 454.745 305.406 455.205 305.582L465.617 309.183C466.329 309.447 466.922 309.652 467.649 309.886C468.45 310.135 468.88 310.486 469.755 310.501C468.998 313.736 459.625 320.31 457.177 321.525C456.777 321.73 456.198 322.228 455.694 322.228C449.109 320.72 442.657 313.092 440.714 310.325L428.834 306.358C428.834 307.5 429.145 308.129 429.516 309.11C430.109 310.706 430.717 312.331 431.563 313.766C434.781 319.197 444.363 327.732 451.141 330.865C457.029 333.588 454.522 333.34 458.216 331.758C469.102 326.122 476.696 320.222 481.709 308.949C483.059 305.274 483.163 305.143 481.22 304.411C470.867 300.575 441.441 289.99 438.697 289.932L439.246 282.538H439.231Z" fill="white"/>
<path d="M340.747 120.311C340.747 120.385 339.278 120.458 336.876 120.516C334.473 120.575 331.121 120.604 327.354 120.619H327.087L327.042 120.355C326.968 119.858 326.894 119.331 326.82 118.804C326.167 114.236 325.633 110.151 325.336 107.501L325.529 107.662C323.349 107.604 322.088 107.545 322.088 107.472C322.088 107.399 323.364 107.34 325.529 107.282H325.692L325.722 107.443C326.167 110.078 326.79 114.148 327.428 118.716C327.502 119.243 327.576 119.77 327.65 120.268L327.354 120.004C331.121 120.019 334.473 120.048 336.876 120.107C339.278 120.165 340.747 120.224 340.747 120.311Z" fill="#29383E"/>
<path d="M326.953 117.573C326.953 117.544 327.309 117.515 327.992 117.471C328.778 117.456 329.727 117.427 330.854 117.383C333.301 117.339 336.742 117.295 340.747 117.281L340.465 117.515C340.762 115.861 341.073 114.089 341.4 112.259C341.578 111.307 341.741 110.385 341.904 109.492L342.201 109.843C337.573 109.829 333.479 109.8 330.543 109.741C329.163 109.712 328.021 109.668 327.087 109.653C326.271 109.624 325.841 109.58 325.841 109.551C325.841 109.507 326.286 109.477 327.087 109.448C328.007 109.419 329.163 109.39 330.543 109.36C333.479 109.302 337.558 109.272 342.201 109.258H342.557L342.497 109.609C342.334 110.502 342.171 111.425 342.008 112.376C341.681 114.206 341.355 115.978 341.059 117.632L341.014 117.866H340.777C336.787 117.852 333.331 117.808 330.884 117.764C329.742 117.734 328.793 117.705 328.021 117.676C327.354 117.647 326.983 117.617 326.983 117.573H326.953Z" fill="#29383E"/>
<path d="M330.691 123.899C330.602 123.914 330.587 123.387 330.038 123.021C329.771 122.845 329.371 122.772 329 122.918C328.629 123.065 328.318 123.445 328.318 123.899C328.318 124.353 328.629 124.748 329 124.88C329.371 125.027 329.771 124.953 330.038 124.778C330.602 124.412 330.602 123.87 330.691 123.899C330.721 123.899 330.78 124.016 330.765 124.251C330.75 124.47 330.632 124.822 330.291 125.114C329.964 125.407 329.386 125.598 328.792 125.393C328.214 125.217 327.695 124.602 327.695 123.885C327.695 123.167 328.199 122.567 328.792 122.391C329.386 122.201 329.964 122.377 330.291 122.669C330.632 122.962 330.75 123.314 330.765 123.533C330.78 123.767 330.735 123.885 330.691 123.885V123.899Z" fill="#29383E"/>
<path d="M339.323 123.899C339.234 123.914 339.219 123.387 338.671 123.021C338.404 122.845 338.003 122.772 337.632 122.918C337.262 123.065 336.95 123.445 336.95 123.899C336.95 124.353 337.262 124.748 337.632 124.88C338.003 125.027 338.404 124.953 338.671 124.778C339.219 124.412 339.234 123.87 339.323 123.899C339.353 123.899 339.412 124.016 339.397 124.251C339.382 124.47 339.264 124.822 338.923 125.114C338.596 125.407 338.018 125.598 337.425 125.393C336.846 125.217 336.327 124.602 336.327 123.885C336.327 123.167 336.831 122.567 337.425 122.391C338.018 122.201 338.596 122.377 338.923 122.669C339.264 122.962 339.382 123.314 339.397 123.533C339.412 123.767 339.368 123.885 339.323 123.885V123.899Z" fill="#29383E"/>
<path d="M203.27 121.717C203.27 121.878 198.109 122.009 191.731 122.009C185.368 122.009 180.192 121.878 180.192 121.717C180.192 121.556 185.353 121.424 191.731 121.424C198.094 121.424 203.27 121.556 203.27 121.717Z" fill="#29383E"/>
<path d="M203.271 117.413C203.271 117.574 198.109 117.706 191.731 117.706C185.368 117.706 180.192 117.574 180.192 117.413C180.192 117.252 185.354 117.121 191.731 117.121C198.094 117.121 203.271 117.252 203.271 117.413Z" fill="#29383E"/>
<path d="M203.271 113.109C203.271 113.27 198.109 113.402 191.731 113.402C185.368 113.402 180.192 113.27 180.192 113.109C180.192 112.948 185.354 112.816 191.731 112.816C198.094 112.816 203.271 112.948 203.271 113.109Z" fill="#29383E"/>
<path d="M306.114 151.555C306.114 151.716 286.462 151.848 262.212 151.848C237.962 151.848 218.31 151.716 218.31 151.555C218.31 151.394 237.962 151.262 262.212 151.262C286.462 151.262 306.114 151.394 306.114 151.555Z" fill="#29383E"/>
<path d="M228.752 143.224H294.175V139.535H228.752V143.224Z" fill="#007CDC"/>
<path d="M342.319 283.3L184.36 283.359C180.296 283.359 177.018 280.108 177.003 276.112L176.974 179.794C176.974 175.783 180.266 172.533 184.315 172.533L342.275 172.474C346.339 172.474 349.616 175.724 349.616 179.721L349.646 276.038C349.646 280.05 346.353 283.285 342.304 283.3H342.319Z" fill="#E6FAFF"/>
<path d="M324.64 187.142C319.3 188.079 315.222 192.706 315.222 198.254C315.222 204.476 320.353 209.527 326.657 209.527C329.712 209.527 332.575 208.356 334.74 206.219C336.891 204.081 338.092 201.256 338.092 198.24C338.092 192.018 332.961 186.952 326.657 186.967C325.975 186.967 325.292 187.025 324.64 187.142ZM328.867 210.303C328.14 210.435 327.413 210.493 326.657 210.493C319.82 210.493 314.258 205.003 314.243 198.254C314.243 191.505 319.805 186 326.642 186C333.48 186 339.042 191.491 339.056 198.24C339.056 201.504 337.766 204.579 335.423 206.892C333.613 208.678 331.329 209.849 328.852 210.288L328.867 210.303Z" fill="#FF0000"/>
<path d="M192.295 239.643V249.101H191.316V240.507H189.047V239.643H192.295Z" fill="#005BA5"/>
<path d="M202.158 248.223V249.087H195.439V248.399L199.414 244.548C200.497 243.494 200.705 242.865 200.705 242.206C200.705 241.108 199.918 240.435 198.465 240.435C197.338 240.435 196.477 240.771 195.855 241.489L195.157 240.888C195.899 240.025 197.086 239.542 198.554 239.542C200.497 239.542 201.728 240.508 201.728 242.089C201.728 242.997 201.446 243.802 200.156 245.046L196.893 248.208H202.158V248.223Z" fill="#005BA5"/>
<path d="M212.244 246.597L210.33 246.612V249.086H209.337V246.612H203.938V245.909L209.01 239.628H210.108L205.213 245.748L209.366 245.733V243.552H210.33V245.733H212.244V246.597Z" fill="#005BA5"/>
<path d="M226.927 246.597H225.014V249.086H224.035V246.597H218.621V245.894L223.694 239.628H224.792L219.897 245.733H224.065L224.05 243.552H225.014V245.733H226.927V246.597Z" fill="#005BA5"/>
<path d="M235.307 246.304C235.307 247.915 234.165 249.174 231.837 249.174C230.457 249.174 229.137 248.705 228.396 247.959L228.87 247.183C229.493 247.812 230.576 248.281 231.807 248.281C233.438 248.281 234.299 247.49 234.299 246.348C234.299 245.133 233.527 244.372 231.095 244.372H229.048L229.538 239.628H234.788V240.492H230.413L230.086 243.508H231.318C234.21 243.508 235.307 244.635 235.307 246.304Z" fill="#005BA5"/>
<path d="M243.806 246.276C243.806 245.032 242.872 244.241 241.403 244.241C239.935 244.241 238.941 245.134 238.941 246.305C238.941 247.345 239.816 248.326 241.477 248.326C242.857 248.326 243.821 247.535 243.821 246.276H243.806ZM244.785 246.247C244.785 248.018 243.376 249.145 241.507 249.16C238.956 249.16 237.577 247.418 237.577 244.431C237.577 241.21 239.356 239.542 241.952 239.542C242.812 239.542 243.628 239.688 244.221 240.054L243.821 240.83C243.331 240.508 242.664 240.391 241.952 240.391C239.89 240.391 238.555 241.708 238.555 244.27C238.555 244.49 238.57 244.753 238.6 245.046C239.075 244.007 240.202 243.421 241.537 243.421C243.435 243.421 244.77 244.534 244.77 246.261L244.785 246.247Z" fill="#005BA5"/>
<path d="M257.896 246.363C257.896 247.944 256.739 249.159 254.426 249.159C253.046 249.159 251.711 248.691 250.97 247.944L251.444 247.168C252.067 247.798 253.165 248.266 254.411 248.266C255.998 248.266 256.873 247.534 256.873 246.363C256.873 245.221 256.072 244.489 254.277 244.489H253.595V243.772L256.25 240.492H251.355V239.628H257.511V240.317L254.796 243.684C256.858 243.786 257.881 244.855 257.881 246.378L257.896 246.363Z" fill="#005BA5"/>
<path d="M266.543 246.276C266.543 245.032 265.609 244.241 264.14 244.241C262.672 244.241 261.678 245.134 261.678 246.305C261.678 247.345 262.553 248.326 264.215 248.326C265.594 248.326 266.558 247.52 266.558 246.276H266.543ZM267.522 246.247C267.522 248.018 266.113 249.16 264.244 249.16C261.693 249.16 260.314 247.418 260.314 244.431C260.314 241.21 262.094 239.542 264.689 239.542C265.549 239.542 266.365 239.688 266.958 240.054L266.558 240.844C266.069 240.522 265.401 240.405 264.689 240.405C262.628 240.405 261.293 241.723 261.293 244.285C261.293 244.505 261.308 244.768 261.337 245.061C261.812 244.021 262.939 243.436 264.274 243.436C266.172 243.436 267.507 244.548 267.507 246.276L267.522 246.247Z" fill="#005BA5"/>
<path d="M276.318 239.615V240.303L272.313 249.072H271.245L275.19 240.479H270.251V242.25H269.287V239.615H276.318Z" fill="#005BA5"/>
<path d="M290.022 239.601V240.289L286.018 249.073H284.95L288.895 240.464L283.956 240.479V242.236H282.992V239.601H290.022Z" fill="#005BA5"/>
<path d="M295.732 243.758C297.23 243.758 298.12 243.099 298.12 242.06C298.12 240.991 297.171 240.347 295.732 240.347C294.279 240.347 293.359 240.991 293.359 242.045C293.359 243.084 294.234 243.743 295.732 243.743V243.758ZM298.447 246.422C298.447 245.266 297.438 244.534 295.732 244.534C294.042 244.534 293.033 245.266 293.033 246.422C293.033 247.594 294.027 248.326 295.732 248.326C297.438 248.326 298.447 247.594 298.447 246.422ZM299.455 246.437C299.455 248.106 298.017 249.16 295.732 249.16C293.434 249.16 292.039 248.121 292.039 246.452C292.039 245.31 292.692 244.519 293.893 244.124C292.914 243.743 292.38 243.026 292.38 242.045C292.38 240.508 293.7 239.542 295.732 239.542C297.764 239.542 299.114 240.493 299.114 242.045C299.114 243.026 298.565 243.743 297.586 244.124C298.788 244.519 299.455 245.324 299.455 246.452V246.437Z" fill="#005BA5"/>
<path d="M307.405 242.366C307.405 241.327 306.53 240.346 304.869 240.346C303.489 240.346 302.525 241.136 302.525 242.395C302.525 243.64 303.46 244.43 304.943 244.43C306.411 244.43 307.405 243.537 307.405 242.366ZM308.755 244.24C308.755 247.461 306.975 249.13 304.379 249.13C303.519 249.13 302.703 248.983 302.11 248.617L302.51 247.841C303 248.164 303.667 248.281 304.379 248.281C306.441 248.281 307.776 246.963 307.776 244.401C307.776 244.181 307.761 243.918 307.731 243.625C307.257 244.665 306.129 245.25 304.794 245.25C302.896 245.25 301.561 244.138 301.561 242.41C301.561 240.639 302.97 239.497 304.839 239.497C307.39 239.497 308.769 241.239 308.769 244.225L308.755 244.24Z" fill="#005BA5"/>
<path d="M318.484 239.601V249.058H317.505V240.464H315.236V239.601H318.484Z" fill="#005BA5"/>
<path d="M328.348 248.192V249.056H321.629V248.368L325.619 244.518C326.701 243.464 326.909 242.834 326.909 242.175C326.909 241.077 326.123 240.404 324.669 240.404C323.542 240.404 322.682 240.74 322.059 241.458L321.362 240.858C322.104 239.994 323.29 239.511 324.759 239.511C326.701 239.511 327.933 240.477 327.933 242.058C327.933 242.966 327.651 243.771 326.36 245.015L323.097 248.178H328.363L328.348 248.192Z" fill="#005BA5"/>
<path d="M336.935 246.335C336.935 247.916 335.779 249.131 333.465 249.131C332.085 249.131 330.751 248.663 330.009 247.916L330.484 247.14C331.106 247.77 332.204 248.238 333.45 248.238C335.037 248.238 335.912 247.506 335.912 246.335C335.912 245.193 335.096 244.461 333.331 244.461H332.649V243.744L335.304 240.464H330.409V239.601H336.565V240.289L333.85 243.656C335.912 243.758 336.935 244.827 336.935 246.35V246.335Z" fill="#005BA5"/>
<path d="M263.34 256.068V260.182L340.109 260.153V256.039L263.34 256.068Z" fill="#005BA5"/>
<path d="M300.73 264.268L300.745 268.367L340.109 268.352V264.253L300.73 264.268Z" fill="#005BA5"/>
<path d="M273.084 198.973L190.233 198.987V191.975L273.084 191.945V198.973Z" fill="#005BA5"/>
<path d="M324.209 198.254C324.209 204.754 318.885 210.025 312.299 210.025C305.714 210.025 300.374 204.754 300.374 198.269C300.374 191.768 305.699 186.498 312.284 186.498C318.87 186.498 324.209 191.754 324.209 198.254Z" fill="#FFCC00"/>
</svg>
